<?xml version="1.0" encoding="UTF-8"?>
<!DOCTYPE svg PUBLIC "-//W3C//DTD SVG 1.1//EN" "http://www.w3.org/Graphics/SVG/1.1/DTD/svg11.dtd">
<svg xmlns="http://www.w3.org/2000/svg" version="1.1" width="512px" height="512px" style="shape-rendering:geometricPrecision; text-rendering:geometricPrecision; image-rendering:optimizeQuality; fill-rule:evenodd; clip-rule:evenodd" xmlns:xlink="http://www.w3.org/1999/xlink">
<g><path style="opacity:1" fill="#fefefe" d="M -0.5,-0.5 C 170.167,-0.5 340.833,-0.5 511.5,-0.5C 511.5,170.167 511.5,340.833 511.5,511.5C 340.833,511.5 170.167,511.5 -0.5,511.5C -0.5,340.833 -0.5,170.167 -0.5,-0.5 Z"/></g>
<g><path style="opacity:1" fill="#4285f4" d="M 110.5,107.5 C 134.5,107.5 158.5,107.5 182.5,107.5C 182.5,116.5 182.5,125.5 182.5,134.5C 168.163,134.333 153.829,134.5 139.5,135C 139,135.5 138.5,136 138,136.5C 137.5,150.829 137.333,165.163 137.5,179.5C 128.5,179.5 119.5,179.5 110.5,179.5C 110.5,155.5 110.5,131.5 110.5,107.5 Z"/></g>
<g><path style="opacity:1" fill="#f3b400" d="M 334.5,107.5 C 358.5,107.5 382.5,107.5 406.5,107.5C 406.5,131.5 406.5,155.5 406.5,179.5C 397.5,179.5 388.5,179.5 379.5,179.5C 379.667,165.163 379.5,150.829 379,136.5C 378.5,136 378,135.5 377.5,135C 363.171,134.5 348.837,134.333 334.5,134.5C 334.5,125.5 334.5,116.5 334.5,107.5 Z"/></g>
<g><path style="opacity:1" fill="#c0c1c0" d="M 155.5,152.5 C 184.833,152.5 214.167,152.5 243.5,152.5C 243.5,181.833 243.5,211.167 243.5,240.5C 214.167,240.5 184.833,240.5 155.5,240.5C 155.5,211.167 155.5,181.833 155.5,152.5 Z"/></g>
<g><path style="opacity:1" fill="#c0c1c0" d="M 273.5,152.5 C 302.833,152.5 332.167,152.5 361.5,152.5C 361.5,181.833 361.5,211.167 361.5,240.5C 332.167,240.5 302.833,240.5 273.5,240.5C 273.5,211.167 273.5,181.833 273.5,152.5 Z"/></g>
<g><path style="opacity:1" fill="#fefffe" d="M 176.5,173.5 C 191.833,173.5 207.167,173.5 222.5,173.5C 222.667,188.504 222.5,203.504 222,218.5C 206.911,219.491 191.745,219.824 176.5,219.5C 176.5,204.167 176.5,188.833 176.5,173.5 Z"/></g>
<g><path style="opacity:1" fill="#fefffe" d="M 294.5,173.5 C 309.833,173.5 325.167,173.5 340.5,173.5C 340.5,188.833 340.5,204.167 340.5,219.5C 325.496,219.667 310.496,219.5 295.5,219C 294.509,203.911 294.176,188.745 294.5,173.5 Z"/></g>
<g><path style="opacity:1" fill="#c0c1c0" d="M 155.5,270.5 C 184.833,270.5 214.167,270.5 243.5,270.5C 243.5,299.833 243.5,329.167 243.5,358.5C 214.167,358.5 184.833,358.5 155.5,358.5C 155.5,329.167 155.5,299.833 155.5,270.5 Z"/></g>
<g><path style="opacity:1" fill="#feb609" d="M 273.5,270.5 C 280.5,270.5 287.5,270.5 294.5,270.5C 294.5,277.5 294.5,284.5 294.5,291.5C 287.5,291.5 280.5,291.5 273.5,291.5C 273.5,284.5 273.5,277.5 273.5,270.5 Z"/></g>
<g><path style="opacity:1" fill="#feb609" d="M 318.5,270.5 C 325.5,270.5 332.5,270.5 339.5,270.5C 339.5,277.5 339.5,284.5 339.5,291.5C 332.5,291.5 325.5,291.5 318.5,291.5C 318.5,284.5 318.5,277.5 318.5,270.5 Z"/></g>
<g><path style="opacity:1" fill="#fefffe" d="M 176.5,291.5 C 191.504,291.333 206.504,291.5 221.5,292C 222.491,307.089 222.824,322.255 222.5,337.5C 207.167,337.5 191.833,337.5 176.5,337.5C 176.5,322.167 176.5,306.833 176.5,291.5 Z"/></g>
<g><path style="opacity:1" fill="#feb609" d="M 296.5,293.5 C 303.5,293.5 310.5,293.5 317.5,293.5C 317.666,300.175 317.5,306.842 317,313.5C 310.256,314.479 303.422,314.812 296.5,314.5C 296.5,307.5 296.5,300.5 296.5,293.5 Z"/></g>
<g><path style="opacity:1" fill="#feb609" d="M 340.5,293.5 C 347.5,293.5 354.5,293.5 361.5,293.5C 361.5,300.5 361.5,307.5 361.5,314.5C 354.825,314.666 348.158,314.5 341.5,314C 340.521,307.256 340.188,300.422 340.5,293.5 Z"/></g>
<g><path style="opacity:1" fill="#feb609" d="M 273.5,315.5 C 280.5,315.5 287.5,315.5 294.5,315.5C 294.5,322.5 294.5,329.5 294.5,336.5C 287.5,336.5 280.5,336.5 273.5,336.5C 273.5,329.5 273.5,322.5 273.5,315.5 Z"/></g>
<g><path style="opacity:1" fill="#feb609" d="M 318.5,315.5 C 325.5,315.5 332.5,315.5 339.5,315.5C 339.5,322.5 339.5,329.5 339.5,336.5C 332.5,336.5 325.5,336.5 318.5,336.5C 318.5,329.5 318.5,322.5 318.5,315.5 Z"/></g>
<g><path style="opacity:1" fill="#0f9d57" d="M 110.5,331.5 C 119.5,331.5 128.5,331.5 137.5,331.5C 137.333,345.837 137.5,360.171 138,374.5C 138.5,375 139,375.5 139.5,376C 153.829,376.5 168.163,376.667 182.5,376.5C 182.5,385.5 182.5,394.5 182.5,403.5C 158.5,403.5 134.5,403.5 110.5,403.5C 110.5,379.5 110.5,355.5 110.5,331.5 Z"/></g>
<g><path style="opacity:1" fill="#da4436" d="M 379.5,331.5 C 388.5,331.5 397.5,331.5 406.5,331.5C 406.5,355.5 406.5,379.5 406.5,403.5C 382.5,403.5 358.5,403.5 334.5,403.5C 334.5,394.5 334.5,385.5 334.5,376.5C 348.837,376.667 363.171,376.5 377.5,376C 378,375.5 378.5,375 379,374.5C 379.5,360.171 379.667,345.837 379.5,331.5 Z"/></g>
<g><path style="opacity:1" fill="#feb609" d="M 296.5,337.5 C 303.175,337.334 309.842,337.5 316.5,338C 317.479,344.744 317.812,351.578 317.5,358.5C 310.5,358.5 303.5,358.5 296.5,358.5C 296.5,351.5 296.5,344.5 296.5,337.5 Z"/></g>
<g><path style="opacity:1" fill="#feb609" d="M 341.5,337.5 C 348.167,337.5 354.833,337.5 361.5,337.5C 361.5,344.5 361.5,351.5 361.5,358.5C 354.5,358.5 347.5,358.5 340.5,358.5C 340.205,351.412 340.538,344.412 341.5,337.5 Z"/></g>
</svg>
